<?xml version="1.0" encoding="UTF-8"?>
<svg width="468px" height="102px" viewBox="0 0 468 102" version="1.1" xmlns="http://www.w3.org/2000/svg" xmlns:xlink="http://www.w3.org/1999/xlink">
    <!-- Generator: Sketch 57.1 (83088) - https://sketch.com -->
    <title>octave</title>
    <desc>Created with Sketch.</desc>
    <g id="Page-1" stroke="none" stroke-width="1" fill="none" fill-rule="evenodd">
        <g id="Custom-Preset-Copy-4" transform="translate(-5.000000, -2.000000)" fill="#FFFFFF" fill-rule="nonzero">
            <path d="M42.98,103.4 C31.2199412,103.4 22.1900315,100.670027 15.89,95.21 C9.5899685,89.7499727 6.1600028,81.9800504 5.6,71.9 C5.5066662,70.6866606 5.46,68.5866816 5.46,65.6 C5.46,62.6133184 5.5066662,60.5133394 5.6,59.3 C6.1600028,49.4066172 9.6833009,41.6833611 16.17,36.13 C22.6566991,30.5766389 31.5932764,27.8 42.98,27.8 C54.3667236,27.8 63.3033009,30.5766389 69.79,36.13 C76.2766991,41.6833611 79.7999972,49.4066172 80.36,59.3 C80.5466676,61.7266788 80.64,63.8266578 80.64,65.6 C80.64,67.3733422 80.5466676,69.4733212 80.36,71.9 C79.7999972,81.9800504 76.3700315,89.7499727 70.07,95.21 C63.7699685,100.670027 54.7400588,103.4 42.98,103.4 Z M42.98,85.76 C46.8066858,85.76 49.653324,84.5700119 51.52,82.19 C53.386676,79.8099881 54.4599986,76.1466914 54.74,71.2 C54.8333338,70.266662 54.88,68.400014 54.88,65.6 C54.88,62.799986 54.8333338,60.933338 54.74,60 C54.4599986,55.1466424 53.386676,51.5066788 51.52,49.08 C49.653324,46.6533212 46.8066858,45.44 42.98,45.44 C39.1533142,45.44 36.306676,46.6533212 34.44,49.08 C32.573324,51.5066788 31.5000014,55.1466424 31.22,60 L31.08,65.6 L31.22,71.2 C31.5000014,76.1466914 32.573324,79.8099881 34.44,82.19 C36.306676,84.5700119 39.1533142,85.76 42.98,85.76 Z M125.82,103.4 C115.179947,103.4 106.570033,100.576695 99.99,94.93 C93.4099671,89.2833051 89.886669,81.4200504 89.42,71.34 L89.28,65.74 L89.42,60 C89.7933352,49.9199496 93.2933002,42.0333618 99.92,36.34 C106.5467,30.6466382 115.179947,27.8 125.82,27.8 C133.940041,27.8 140.753306,29.2466522 146.26,32.14 C151.766694,35.0333478 155.87332,38.4633135 158.58,42.43 C161.28668,46.3966865 162.733332,50.013317 162.92,53.28 C163.013334,54.3066718 162.68667,55.1699965 161.94,55.87 C161.19333,56.5700035 160.306672,56.92 159.28,56.92 L140.52,56.92 C139.493328,56.92 138.700003,56.686669 138.14,56.22 C137.579997,55.753331 137.066669,55.0066718 136.6,53.98 C135.573328,51.3666536 134.243341,49.4533394 132.61,48.24 C130.976659,47.0266606 128.900013,46.42 126.38,46.42 C119.193297,46.42 115.460001,51.1799524 115.18,60.7 L115.04,66.02 L115.18,70.64 C115.273334,75.4933576 116.253324,79.0633219 118.12,81.35 C119.986676,83.6366781 122.739982,84.78 126.38,84.78 C129.08668,84.78 131.209992,84.1966725 132.75,83.03 C134.290008,81.8633275 135.573328,79.9266802 136.6,77.22 C137.066669,76.1933282 137.579997,75.446669 138.14,74.98 C138.700003,74.513331 139.493328,74.28 140.52,74.28 L159.28,74.28 C160.213338,74.28 161.05333,74.6066634 161.8,75.26 C162.54667,75.9133366 162.92,76.706662 162.92,77.64 C162.92,80.5333478 161.63668,84.0099797 159.07,88.07 C156.503321,92.1300203 152.420028,95.6999846 146.82,98.78 C141.219972,101.860015 134.220042,103.4 125.82,103.4 Z M214.18,102 C194.393234,102 184.5,92.7134262 184.5,74.14 L184.5,48.24 L173.44,48.24 C172.506662,48.24 171.690004,47.8900035 170.99,47.19 C170.289997,46.4899965 169.94,45.673338 169.94,44.74 L169.94,32.7 C169.94,31.6733282 170.289997,30.8333366 170.99,30.18 C171.690004,29.5266634 172.506662,29.2 173.44,29.2 L184.5,29.2 L184.5,6.1 C184.5,5.0733282 184.849997,4.2333366 185.55,3.58 C186.250004,2.9266634 187.066662,2.6 188,2.6 L205.22,2.6 C206.246672,2.6 207.086663,2.9266634 207.74,3.58 C208.393337,4.2333366 208.72,5.0733282 208.72,6.1 L208.72,29.2 L226.22,29.2 C227.246672,29.2 228.109997,29.5266634 228.81,30.18 C229.510004,30.8333366 229.86,31.6733282 229.86,32.7 L229.86,44.74 C229.86,45.7666718 229.510004,46.6066634 228.81,47.26 C228.109997,47.9133366 227.246672,48.24 226.22,48.24 L208.72,48.24 L208.72,72.04 C208.72,75.306683 209.326661,77.7799916 210.54,79.46 C211.753339,81.1400084 213.71332,81.98 216.42,81.98 L227.48,81.98 C228.506672,81.98 229.346663,82.3299965 230,83.03 C230.653337,83.7300035 230.98,84.5933282 230.98,85.62 L230.98,98.5 C230.98,99.433338 230.653337,100.249997 230,100.95 C229.346663,101.650003 228.506672,102 227.48,102 L214.18,102 Z M264.3,103.4 C259.353309,103.4 254.85002,102.443343 250.79,100.53 C246.72998,98.6166571 243.556678,95.9800168 241.27,92.62 C238.983322,89.2599832 237.84,85.5733534 237.84,81.56 C237.84,75.2133016 240.47664,70.0566865 245.75,66.09 C251.02336,62.1233135 258.279954,59.3933408 267.52,57.9 L284.88,55.24 L284.88,53.56 C284.88,50.1066494 284.180007,47.5866746 282.78,46 C281.379993,44.4133254 279.000017,43.62 275.64,43.62 C273.773324,43.62 272.210006,43.9466634 270.95,44.6 C269.689994,45.2533366 268.266675,46.2333268 266.68,47.54 C265.466661,48.5666718 264.393338,49.313331 263.46,49.78 C263.086665,50.4333366 262.620003,50.76 262.06,50.76 L245.82,50.76 C244.886662,50.76 244.11667,50.4566697 243.51,49.85 C242.90333,49.2433303 242.646666,48.5200042 242.74,47.68 C242.833334,45.1599874 244.093321,42.3366823 246.52,39.21 C248.946679,36.0833177 252.633309,33.4000112 257.58,31.16 C262.526691,28.9199888 268.639964,27.8 275.92,27.8 C287.493391,27.8 296.079972,30.3433079 301.68,35.43 C307.280028,40.5166921 310.08,47.3999566 310.08,56.08 L310.08,98.5 C310.08,99.433338 309.753337,100.249997 309.1,100.95 C308.446663,101.650003 307.606672,102 306.58,102 L289.36,102 C288.426662,102 287.610004,101.650003 286.91,100.95 C286.209997,100.249997 285.86,99.433338 285.86,98.5 L285.86,93.6 C283.806656,96.4933478 280.960018,98.8499909 277.32,100.67 C273.679982,102.490009 269.340025,103.4 264.3,103.4 Z M271.3,86.88 C275.406687,86.88 278.743321,85.5266802 281.31,82.82 C283.87668,80.1133198 285.16,76.193359 285.16,71.06 L285.16,69.38 L273.54,71.34 C265.699961,72.8333408 261.78,75.6333128 261.78,79.74 C261.78,81.8866774 262.689991,83.6133268 264.51,84.92 C266.330009,86.2266732 268.59332,86.88 271.3,86.88 Z M348.28,102 C346.973327,102 345.970004,101.69667 345.27,101.09 C344.569997,100.48333 343.986669,99.6200056 343.52,98.5 L316.92,33.54 C316.826666,33.2599986 316.78,32.886669 316.78,32.42 C316.78,31.486662 317.08333,30.7166697 317.69,30.11 C318.29667,29.5033303 319.066662,29.2 320,29.2 L336.66,29.2 C338.62001,29.2 340.019996,30.1799902 340.86,32.14 L356.12,74 L371.52,32.14 C371.800001,31.3933296 372.266663,30.7166697 372.92,30.11 C373.573337,29.5033303 374.459994,29.2 375.58,29.2 L392.38,29.2 C393.220004,29.2 393.966663,29.5033303 394.62,30.11 C395.273337,30.7166697 395.6,31.486662 395.6,32.42 L395.32,33.54 L368.86,98.5 C368.393331,99.6200056 367.78667,100.48333 367.04,101.09 C366.29333,101.69667 365.266673,102 363.96,102 L348.28,102 Z M435.46,103.4 C424.073276,103.4 415.113366,100.343364 408.58,94.23 C402.046634,88.1166361 398.686668,79.226725 398.5,67.56 L398.5,63.22 C398.873335,52.1132778 402.326634,43.4333646 408.86,37.18 C415.393366,30.9266354 424.213278,27.8 435.32,27.8 C443.346707,27.8 450.136639,29.4099839 455.69,32.63 C461.243361,35.8500161 465.396653,40.2833051 468.15,45.93 C470.903347,51.5766949 472.28,57.9932974 472.28,65.18 L472.28,68.68 C472.28,69.7066718 471.930004,70.5699965 471.23,71.27 C470.529997,71.9700035 469.666672,72.32 468.64,72.32 L424.26,72.32 L424.26,73.16 C424.353334,77.360021 425.333324,80.7433205 427.2,83.31 C429.066676,85.8766795 431.726649,87.16 435.18,87.16 C437.420011,87.16 439.21666,86.7166711 440.57,85.83 C441.92334,84.9433289 443.206661,83.8 444.42,82.4 C445.260004,81.466662 445.936664,80.8833345 446.45,80.65 C446.963336,80.4166655 447.779994,80.3 448.9,80.3 L467.24,80.3 C468.080004,80.3 468.80333,80.5566641 469.41,81.07 C470.01667,81.5833359 470.32,82.2133296 470.32,82.96 C470.32,85.3866788 468.943347,88.233317 466.19,91.5 C463.436653,94.766683 459.42336,97.566655 454.15,99.9 C448.87664,102.233345 442.646703,103.4 435.46,103.4 Z M446.52,58.04 L446.52,57.76 C446.52,53.2799776 445.54001,49.8033457 443.58,47.33 C441.61999,44.8566543 438.866684,43.62 435.32,43.62 C431.773316,43.62 429.043343,44.8566543 427.13,47.33 C425.216657,49.8033457 424.26,53.2799776 424.26,57.76 L424.26,58.04 L446.52,58.04 Z" id="octave"></path>
        </g>
    </g>
</svg>