<?xml version="1.0" encoding="UTF-8"?>
<svg width="639px" height="119px" viewBox="0 0 639 119" version="1.1" xmlns="http://www.w3.org/2000/svg" xmlns:xlink="http://www.w3.org/1999/xlink">
    <!-- Generator: Sketch 57.1 (83088) - https://sketch.com -->
    <title>OCTAVE</title>
    <desc>Created with Sketch.</desc>
    <g id="Page-1" stroke="none" stroke-width="1" fill="none" fill-rule="evenodd">
        <g id="Custom-Preset-Copy-2" transform="translate(-5.000000, -4.000000)" fill="#3E3E3E" fill-rule="nonzero">
            <path d="M66.24,4.48 C78.2933936,4.48 88.853288,6.7733104 97.92,11.36 C106.986712,15.9466896 114.026642,22.5866232 119.04,31.28 C124.053358,39.9733768 126.56,50.3466064 126.56,62.4 C126.56,74.133392 124.000026,84.533288 118.88,93.6 C113.759974,102.666712 106.613379,109.706642 97.44,114.72 C88.2666208,119.733358 77.813392,122.24 66.08,122.24 C54.0266064,122.24 43.466712,119.94669 34.4,115.36 C25.333288,110.77331 18.2933584,104.133377 13.28,95.44 C8.2666416,86.7466232 5.76,76.3733936 5.76,64.32 C5.76,52.586608 8.3199744,42.186712 13.44,33.12 C18.5600256,24.053288 25.7066208,17.0133584 34.88,12 C44.0533792,6.9866416 54.506608,4.48 66.24,4.48 Z M65.6,7.36 C60.3733072,7.36 55.76002,9.7333096 51.76,14.48 C47.75998,19.2266904 44.693344,25.866624 42.56,34.4 C40.426656,42.933376 39.36,52.6932784 39.36,63.68 C39.36,74.7733888 40.5866544,84.5332912 43.04,92.96 C45.4933456,101.386709 48.7999792,107.89331 52.96,112.48 C57.1200208,117.06669 61.7066416,119.36 66.72,119.36 C71.9466928,119.36 76.55998,116.98669 80.56,112.24 C84.56002,107.49331 87.626656,100.853376 89.76,92.32 C91.893344,83.786624 92.96,74.0267216 92.96,63.04 C92.96,51.9466112 91.7333456,42.1867088 89.28,33.76 C86.8266544,25.3332912 83.5200208,18.8266896 79.36,14.24 C75.1999792,9.6533104 70.6133584,7.36 65.6,7.36 Z M196.346667,4.48 C202.746699,4.48 208.186644,5.3866576 212.666667,7.2 C217.146689,9.0133424 221.519979,11.5733168 225.786667,14.88 C226.853339,15.8400048 227.866667,16.32 228.826667,16.32 C230.960011,16.32 232.346663,13.120032 232.986667,6.72 L236.666667,6.72 C236.239998,14.2933712 236.026667,27.6265712 236.026667,46.72 L232.346667,46.72 C231.599996,38.186624 230.213343,31.4666912 228.186667,26.56 C226.15999,21.6533088 222.640025,17.5466832 217.626667,14.24 C212.613308,11.039984 207.653358,9.44 202.746667,9.44 C191.653278,9.44 183.866689,14.77328 179.386667,25.44 C174.906644,36.10672 172.666667,48.8532592 172.666667,63.68 C172.666667,78.5067408 174.906644,91.25328 179.386667,101.92 C183.866689,112.58672 191.653278,117.92 202.746667,117.92 C207.653358,117.92 212.613308,116.320016 217.626667,113.12 C222.640025,110.026651 226.15999,105.866693 228.186667,100.64 C230.213343,95.4133072 231.599996,88.000048 232.346667,78.4 L236.026667,78.4 C236.026667,98.3467664 236.239998,112.213294 236.666667,120 L232.986667,120 C232.666665,116.58665 232.213336,114.160007 231.626667,112.72 C231.039997,111.279993 230.213339,110.56 229.146667,110.56 C228.293329,110.56 227.17334,110.986662 225.786667,111.84 C220.986643,115.25335 216.400022,117.839991 212.026667,119.6 C207.653311,121.360009 202.373364,122.24 196.186667,122.24 C184.133273,122.24 173.573379,119.94669 164.506667,115.36 C155.439955,110.77331 148.400025,104.133377 143.386667,95.44 C138.373308,86.7466232 135.866667,76.3733936 135.866667,64.32 C135.866667,52.586608 138.426641,42.186712 143.546667,33.12 C148.666692,24.053288 155.813287,17.0133584 164.986667,12 C174.160046,6.9866416 184.613275,4.48 196.346667,4.48 Z M352.986667,6.72 C352.239996,18.5600592 351.866667,29.1199536 351.866667,38.4 C351.866667,43.3066912 352.026665,47.1466528 352.346667,49.92 L348.666667,49.92 C345.146649,35.9465968 340.613361,25.8666976 335.066667,19.68 C329.519972,13.4933024 323.546699,10.4 317.146667,10.4 L316.986667,10.4 L316.986667,101.92 C316.986667,106.400022 317.439995,109.653323 318.346667,111.68 C319.253338,113.706677 320.906655,115.066663 323.306667,115.76 C325.706679,116.453337 329.519974,116.8 334.746667,116.8 L334.746667,120 C319.706591,119.679998 308.026708,119.52 299.706667,119.52 C292.133295,119.52 281.146739,119.679998 266.746667,120 L266.746667,116.8 C271.973359,116.8 275.786655,116.453337 278.186667,115.76 C280.586679,115.066663 282.239995,113.706677 283.146667,111.68 C284.053338,109.653323 284.506667,106.400022 284.506667,101.92 L284.506667,10.4 L284.346667,10.4 C277.839967,10.4 271.840027,13.466636 266.346667,19.6 C260.853306,25.733364 256.346684,35.8399296 252.826667,49.92 L249.146667,49.92 C249.466668,47.1466528 249.626667,43.3066912 249.626667,38.4 C249.626667,29.1199536 249.253337,18.5600592 248.506667,6.72 C258.640051,7.0400016 276.079876,7.2 300.826667,7.2 C325.46679,7.2 342.853283,7.0400016 352.986667,6.72 Z M448.666667,106.56 C450.05334,109.97335 451.573325,112.506658 453.226667,114.16 C454.880008,115.813342 456.506659,116.693333 458.106667,116.8 L458.106667,120 C450.426628,119.679998 440.720059,119.52 428.986667,119.52 C416.826606,119.52 407.866695,119.679998 402.106667,120 L402.106667,116.8 C406.16002,116.586666 409.039991,116.080004 410.746667,115.28 C412.453342,114.479996 413.306667,113.066677 413.306667,111.04 C413.306667,109.11999 412.666673,106.560016 411.386667,103.36 L401.946667,77.12 L369.626667,77.12 L366.906667,84.32 C363.386649,93.386712 361.626667,100.319976 361.626667,105.12 C361.626667,109.493355 362.853321,112.479992 365.306667,114.08 C367.760012,115.680008 371.386643,116.586666 376.186667,116.8 L376.186667,120 C368.186627,119.679998 361.20003,119.52 355.226667,119.52 C350.213308,119.52 346.106683,119.679998 342.906667,120 L342.906667,116.8 C345.573347,116.373331 348.079988,114.720014 350.426667,111.84 C352.773345,108.959986 355.173321,104.373365 357.626667,98.08 L393.146667,6.72 C396.560017,6.9333344 399.386655,7.04 401.626667,7.04 C403.760011,7.04 406.533316,6.9333344 409.946667,6.72 L448.666667,106.56 Z M400.826667,73.92 L386.266667,33.92 L370.906667,73.92 L400.826667,73.92 Z M534.213333,7.2 C539.226692,7.2 543.333317,7.0400016 546.533333,6.72 L546.533333,9.92 C543.759986,11.3066736 540.960014,13.8133152 538.133333,17.44 C535.306653,21.0666848 532.773345,26.0266352 530.533333,32.32 L499.333333,120 C495.919983,119.786666 493.093345,119.68 490.853333,119.68 C488.719989,119.68 485.946684,119.786666 482.533333,120 L440.613333,20.16 C439.22666,16.7466496 437.706675,14.2133416 436.053333,12.56 C434.399992,10.9066584 432.773341,10.0266672 431.173333,9.92 L431.173333,6.72 C438.853372,7.0400016 448.559941,7.2 460.293333,7.2 C472.453394,7.2 481.413305,7.0400016 487.173333,6.72 L487.173333,9.92 C483.11998,10.1333344 480.240009,10.6133296 478.533333,11.36 C476.826658,12.1066704 475.973333,13.5999888 475.973333,15.84 C475.973333,17.6533424 476.613327,20.159984 477.893333,23.36 L505.573333,91.52 L521.093333,48 C524.613351,38.1866176 526.373333,30.2933632 526.373333,24.32 C526.373333,15.0399536 522.000044,10.2400016 513.253333,9.92 L513.253333,6.72 C521.253373,7.0400016 528.23997,7.2 534.213333,7.2 Z M642.826667,93.12 C642.826667,104.000054 643.199996,112.959965 643.946667,120 C636.693297,119.679998 624.480086,119.52 607.306667,119.52 C582.346542,119.52 563.680062,119.679998 551.306667,120 L551.306667,116.8 C554.720017,116.586666 557.199992,116.160003 558.746667,115.52 C560.293341,114.879997 561.333331,113.653342 561.866667,111.84 C562.400003,110.026658 562.666667,107.093354 562.666667,103.04 L562.666667,23.68 C562.666667,19.6266464 562.373336,16.6933424 561.786667,14.88 C561.199997,13.0666576 560.160007,11.8400032 558.666667,11.2 C557.173326,10.5599968 554.720017,10.1333344 551.306667,9.92 L551.306667,6.72 C563.680062,7.0400016 582.346542,7.2 607.306667,7.2 C622.986745,7.2 634.1333,7.0400016 640.746667,6.72 C639.999996,16.7467168 639.626667,25.7066272 639.626667,33.6 C639.626667,38.5066912 639.786665,42.3466528 640.106667,45.12 L636.426667,45.12 C634.506657,32.7466048 630.933359,23.8666936 625.706667,18.48 C620.479974,13.0933064 614.240036,10.4 606.986667,10.4 L604.906667,10.4 C602.026652,10.4 599.920007,10.6399976 598.586667,11.12 C597.253327,11.6000024 596.346669,12.50666 595.866667,13.84 C595.386664,15.17334 595.146667,17.3866512 595.146667,20.48 L595.146667,61.44 L596.746667,61.44 C602.293361,61.44 607.03998,59.2533552 610.986667,54.88 C614.933353,50.5066448 617.439995,45.65336 618.506667,40.32 L622.186667,40.32 C621.866665,44.8000224 621.706667,49.8133056 621.706667,55.36 L621.706667,63.04 C621.706667,68.4800272 622.026663,76.0532848 622.666667,85.76 L618.986667,85.76 C618.026662,79.6799696 615.546687,74.64002 611.546667,70.64 C607.546647,66.63998 602.613363,64.64 596.746667,64.64 L595.146667,64.64 L595.146667,106.24 C595.146667,109.333349 595.386664,111.54666 595.866667,112.88 C596.346669,114.21334 597.253327,115.119998 598.586667,115.6 C599.920007,116.080002 602.026652,116.32 604.906667,116.32 L610.186667,116.32 C616.373364,116.32 622.239972,113.306697 627.786667,107.28 C633.333361,101.253303 637.279988,91.6267328 639.626667,78.4 L643.306667,78.4 C642.986665,82.2400192 642.826667,87.1466368 642.826667,93.12 Z" id="OCTAVE"></path>
        </g>
    </g>
</svg>